/* XPM */
static char * C:\proj\cvs\jampal\jampal\jampal32_xpm[] = {
"32 32 242 2",
"  	c None",
". 	c #294AD1",
"+ 	c #2E42B5",
"@ 	c #3048C1",
"# 	c #9AAAED",
"$ 	c #96A7ED",
"% 	c #8EA1EB",
"& 	c #8B9DE9",
"* 	c #2545C7",
"= 	c #AAB7EF",
"- 	c #A4B1EB",
"; 	c #798EE4",
"> 	c #6F85E4",
", 	c #2136AB",
"' 	c #B3BFF1",
") 	c #8195E5",
"! 	c #8699E7",
"~ 	c #6B82E2",
"{ 	c #CCD3F4",
"] 	c #7D92E6",
"^ 	c #738AE5",
"/ 	c #6A85EA",
"( 	c #3455D9",
"_ 	c #BDC5EE",
": 	c #7288E3",
"< 	c #687CDA",
"[ 	c #6176D6",
"} 	c #5E72D1",
"| 	c #6880E0",
"1 	c #748AE5",
"2 	c #335AE5",
"3 	c #97A8EB",
"4 	c #637BDF",
"5 	c #5A6FD4",
"6 	c #566ACF",
"7 	c #4B5EC6",
"8 	c #3F51BB",
"9 	c #3344AF",
"0 	c #2938A6",
"a 	c #637EE5",
"b 	c #3246BA",
"c 	c #C3CDF4",
"d 	c #6079DF",
"e 	c #5971D8",
"f 	c #4D62CB",
"g 	c #1F2F9D",
"h 	c #1F2B94",
"i 	c #273499",
"j 	c #4752AD",
"k 	c #737BBD",
"l 	c #A1A7D6",
"m 	c #7F90DF",
"n 	c #5C76E1",
"o 	c #5873DF",
"p 	c #556FDC",
"q 	c #455ECF",
"r 	c #3A47A7",
"s 	c #9BA3D6",
"t 	c #C4CAE5",
"u 	c #E6EAF7",
"v 	c #F7F9FE",
"w 	c #EEF2FC",
"x 	c #516EDE",
"y 	c #4B63D3",
"z 	c #5572E0",
"A 	c #4C68DB",
"B 	c #3B51C2",
"C 	c #4654B5",
"D 	c #D6DAEF",
"E 	c #D5DDF7",
"F 	c #516DDB",
"G 	c #516DDD",
"H 	c #4054C0",
"I 	c #758CE8",
"J 	c #4B6AE0",
"K 	c #4764DA",
"L 	c #374EC2",
"M 	c #5D6EC3",
"N 	c #4A65DB",
"O 	c #4461D7",
"P 	c #3C56D0",
"Q 	c #5E7AE4",
"R 	c #4666DF",
"S 	c #4360DA",
"T 	c #344DC5",
"U 	c #6172CD",
"V 	c #4562DA",
"W 	c #405DDA",
"X 	c #405AD6",
"Y 	c #4056C8",
"Z 	c #4E6FE5",
"` 	c #4164E3",
" .	c #4162DE",
"..	c #3049C6",
"+.	c #3B59DA",
"@.	c #3A55D9",
"#.	c #344ABD",
"$.	c #334DCA",
"%.	c #3854CD",
"&.	c #4769E4",
"*.	c #3E62E5",
"=.	c #3D5FE1",
"-.	c #2D46C6",
";.	c #5C6ECD",
">.	c #506ADE",
",.	c #3550D8",
"'.	c #314ED6",
").	c #2942C2",
"!.	c #A2ADE2",
"~.	c #7A8ADD",
"{.	c #2C45C2",
"].	c #2A41BE",
"^.	c #263DBA",
"/.	c #5D7EEA",
"(.	c #3A5FE4",
"_.	c #3A5DE1",
":.	c #3658DD",
"<.	c #2A47C7",
"[.	c #2E49D0",
"}.	c #2A42C6",
"|.	c #253DBF",
"1.	c #5677EA",
"2.	c #395EE6",
"3.	c #395DE4",
"4.	c #385CE3",
"5.	c #5666C9",
"6.	c #4761DD",
"7.	c #2E4CD6",
"8.	c #2E4AD4",
"9.	c #2F41B2",
"0.	c #7383D7",
"a.	c #253FC2",
"b.	c #223ABD",
"c.	c #2239B6",
"d.	c #344BC3",
"e.	c #4E70EA",
"f.	c #3A60E7",
"g.	c #375DE6",
"h.	c #263DC5",
"i.	c #CAD1EE",
"j.	c #1A2CAA",
"k.	c #1E2EA4",
"l.	c #2139B9",
"m.	c #1E36B8",
"n.	c #2037B5",
"o.	c #3A4DBA",
"p.	c #365CE7",
"q.	c #365BE3",
"r.	c #2238C0",
"s.	c #5061C2",
"t.	c #2A46D2",
"u.	c #0E1991",
"v.	c #1D268D",
"w.	c #35429E",
"x.	c #6A7BD1",
"y.	c #1E37BA",
"z.	c #1C35B7",
"A.	c #1D34B4",
"B.	c #345BE6",
"C.	c #3257E2",
"D.	c #2037BE",
"E.	c #1628A9",
"F.	c #4755B9",
"G.	c #253EC8",
"H.	c #171F8D",
"I.	c #656BAC",
"J.	c #AEB2CE",
"K.	c #C9CCD6",
"L.	c #1E39BC",
"M.	c #1A33B4",
"N.	c #3245B4",
"O.	c #2E54DD",
"P.	c #2847CE",
"Q.	c #5764B9",
"R.	c #B8BDD7",
"S.	c #2642CD",
"T.	c #162297",
"U.	c #7277B0",
"V.	c #D7D9DB",
"W.	c #DEE0E0",
"X.	c #D5D7DE",
"Y.	c #1C33B1",
"Z.	c #3A4DB6",
"`.	c #3749B2",
" +	c #162993",
".+	c #3158E1",
"++	c #8E92BD",
"@+	c #3240A6",
"#+	c #BFC1CB",
"$+	c #1A31B2",
"%+	c #0E218C",
"&+	c #1F3ABF",
"*+	c #2D379F",
"=+	c #A7ACC9",
"-+	c #D2D4D4",
";+	c #223DC6",
">+	c #1A31B1",
",+	c #182FAE",
"'+	c #293CAC",
")+	c #3D60DF",
"!+	c #213DC3",
"~+	c #CCCDCD",
"{+	c #7F8CC7",
"]+	c #6574C1",
"^+	c #1830B0",
"/+	c #162EAD",
"(+	c #142AA4",
"_+	c #1D37BD",
":+	c #1A36B9",
"<+	c #1A34B6",
"[+	c #152DAC",
"}+	c #152DAB",
"|+	c #284CD2",
"1+	c #4A5CBD",
"2+	c #1933B6",
"3+	c #1831B3",
"4+	c #1631B1",
"5+	c #1630AF",
"6+	c #132CAA",
"7+	c #122BA9",
"8+	c #152AA9",
"9+	c #1028A6",
"0+	c #0F27A4",
"a+	c #0E27A2",
"b+	c #0F25A2",
"c+	c #0D239E",
"d+	c #2537A2",
"e+	c #122CAD",
"f+	c #0C25A1",
"g+	c #0A229E",
"h+	c #0A219A",
"i+	c #0A2096",
"j+	c #1930A9",
"k+	c #071F99",
"l+	c #051D96",
"m+	c #031992",
"n+	c #071D93",
"o+	c #061B8C",
"p+	c #13289B",
"q+	c #041A90",
"r+	c #3E4CA5",
"s+	c #3B4BAE",
"                      . . . . . . . .                           ",
"                + @ . # # # # $ % & & . . .                     ",
"            * . # = = = - # # # # $ & & ; > . .                 ",
"          , # ' ' - & ) ) ) ) ) ) ) ) ! & ; > ~ .               ",
"        . # { = & ; ; ; ; ; ; ; ; ; ; ; ; ] ^ / ~ .             ",
"      ( - _ $ ; ^ : : : : : : > ~ < [ } [ | : 1 ~ ~ .           ",
"    2 3 ' % ^ ~ | | 4 4 [ 5 6 7 8 9 0 0 8 6 4 | ~ a ~ .         ",
"  b & c & ~ a d d e f 8 9 0 g h i j k l _ m d d d | ~ | .       ",
"  2 ' % a n o o p q 9 r j k s t u v v v w % o o o o n x .       ",
"y & # a z z x x A B C D w v w E c ' # & c % F G G F F A . .     ",
"H $ I z J J J A K L M w = ! : d p A N F ' & N N N A A A O .     ",
"P % Q J R R R R S T U E z V V V S W X Y = m P P P X S O y .     ",
"] ] Z ` `  . . .W ..U E z W +.@.@.@...#.- m $.$...@ @ %.q Y O   ",
"] / &.*.=.=.=.=.+.-.;.E >.@.,.,.,.'.).b !.~.-.-.{.].^.].H H X   ",
"; /.` (.(._._._.:.<.;.E N ,.,.'.'.[.).b !.~.}.).].|.^.^.b ..H   ",
"I 1.*.2.2.3.4.4.:.<.5.{ 6.'.7.8.8.[.|.9.!.0.a.a.|.b.c.c.+ d.H   ",
"/ e.f.2.2.g.4.4.:.h.5.i.6.7.8.[.}.b.j.k.s 0.a.|.b.l.m.n.+ o.+   ",
"/.e.f.p.g.g.g.q.'.r.s.t W 8.t.h.j.u.v.w.s x.b.b.y.m.z.A.+ o.w.  ",
"Q e.f.p.p.B.C.7.D.E.F.t X t.G.E.H.I.J.K.t U L.y.m.z.A.M.N.H i   ",
"o Z 2.B.2 O.P.E.u.h Q.R.P S.y.T.U.V.W.W.X.M z.z.A.M.M.Y.Z.`. +  ",
" +A 2.B..+P.E.i ++K.V.R.%.S.m.@+#+V.V.V.R.H z.M.M.M.$+, Z.i     ",
"%+A 3.2 O.&+*+=+-+-+-+R.$.;+&++ =+-+K.J.Q.A.$+>+>+$+,+'+Z.i     ",
"%+K )+.+O.!+k ~+~+~+~+{+a.&+L.L.H ]+M Z.$+^+,+,+,+/+(+Z. +i     ",
"  %+S ( O.. M #+~+#+{+)._+_+:+<+M.$+,+/+/+[+[+/+}+(+r j %+      ",
"  %+Y %.. |+!+1+M 8 :+:+2+3+4+5+,+[+6+7+8+8+8+}+(+0 d j %+      ",
"    %+H $.* :+2+2+3+4+5+[+6+7+7+9+0+a+a+b+b+a+c+d+d w.%+        ",
"      %+$.H <+e+6+7+9+0+a+f+c+g+g+h+h+h+h+h+i+i d w.%+          ",
"        %+d.@ j+c+f+g+g+h+k+l+l+l+l+m+m+n+o+w.Q.w.%+            ",
"          %+`.b , p+i+i+n+q+q+q+q+o+o+%+ +r+j j %+              ",
"            o+%+w.+ '+d+g  + + + +i w.r+s+N.%+%+                ",
"                %+%+%++ '+N.'+N.N.N.w.%+%+%+                    ",
"                      %+%+%+%+%+%+%+%+                          "};
